<?xml version="1.0" encoding="utf-8" standalone="yes"?>
<!DOCTYPE svg PUBLIC "-//W3C//DTD SVG 1.1//EN" "http://www.w3.org/Graphics/SVG/1.1/DTD/svg11.dtd">
<svg style="fill:none;stroke:none;fill-rule:evenodd;clip-rule:evenodd;stroke-linecap:round;stroke-linejoin:round;stroke-miterlimit:1.5;" version="1.1" xmlns="http://www.w3.org/2000/svg" xmlns:xlink="http://www.w3.org/1999/xlink" width="455" height="1782" viewBox="0 0 455 1782"><style class="text-font-style fontImports" data-font-family="Roboto">@import url(https://fonts.googleapis.com/css2?family=Roboto:wght@400;700&amp;amp;display=block);</style><rect id="" x="0" y="0" width="454.625" height="1781.769" style="fill: #2c2c2c;"></rect><g id="items" style="isolation: isolate"><g id="blend" style="mix-blend-mode: normal"><g id="g-root-tf_141r6qmk1oq9t-fill" data-item-order="-1215055"><g id="tf_141r6qmk1oq9t-fill-merged" stroke="none" fill="#2c2c2c" fill-opacity="1"><g><path d="M0 0 H454.63 V1781.77 H0 V0"></path></g></g></g><g id="g-root-tf_141r6qmk1oq9t-stroke" data-item-order="-1215055"></g><g id="g-root-di_qn6h9ak1zzew-fill" data-item-order="-18756" transform="translate(32.860504150390625, 401.99981689453125)"><g id="di_qn6h9ak1zzew-fill-merged" stroke="none" fill="url(#gradient-c87c35-206254501)" fill-opacity="1"><g><path d="M10 58L107.69 106L205.38 58L107.69 10L10 58"></path></g></g></g><g id="g-root-di_qn6h9ak1zzew-stroke" data-item-order="-18756" transform="translate(32.860504150390625, 401.99981689453125)"><g id="di_qn6h9ak1zzew-stroke" fill="none" stroke-linecap="round" stroke-linejoin="round" stroke-miterlimit="4" stroke="#fafafa" stroke-width="2" stroke-opacity="1"><g><path d="M 10 58.000122L 107.69 106.000122L 205.38 58.000122L 107.69 10.000122Z"></path></g></g></g><g id="g-root-ro_1uux4nyk1yj9i-fill" data-item-order="-14489" transform="translate(29.92926025390625, 273.99993896484375)"><g id="ro_1uux4nyk1yj9i-fill-merged" stroke="none" fill="url(#gradient-2898bd-56937253)" fill-opacity="1"><g><path d="M22 10 H199.24C199.24 10 211.24 10 211.24 22 V70C211.24 70 211.24 82 199.24 82 H22C22 82 10 82 10 70 V22C10 22 10 10 22 10"></path></g></g></g><g id="g-root-ro_1uux4nyk1yj9i-stroke" data-item-order="-14489" transform="translate(29.92926025390625, 273.99993896484375)"><g id="ro_1uux4nyk1yj9i-stroke" fill="none" stroke-linecap="round" stroke-linejoin="round" stroke-miterlimit="4" stroke="#fafafa" stroke-width="2" stroke-opacity="1"><g><path d="M 21.999969 10L 199.239969 10C 199.239969 10 211.239969 10 211.239969 22L 211.239969 70C 211.239969 70 211.239969 82 199.239969 82L 21.999969 82C 21.999969 82 9.999969 82 9.999969 70L 9.999969 22C 9.999969 22 9.999969 10 21.999969 10"></path></g></g></g><g id="g-root-ro_1ulkd0ek1zytd-fill" data-item-order="-13659" transform="translate(134.68551635742188, 1048)"><g id="ro_1ulkd0ek1zytd-fill-merged" stroke="none" fill="url(#gradient-2898bd-56937253)" fill-opacity="1"><g><path d="M22 10 H187.71C187.71 10 199.71 10 199.71 22 V70C199.71 70 199.71 82 187.71 82 H22C22 82 10 82 10 70 V22C10 22 10 10 22 10"></path></g></g></g><g id="g-root-ro_1ulkd0ek1zytd-stroke" data-item-order="-13659" transform="translate(134.68551635742188, 1048)"><g id="ro_1ulkd0ek1zytd-stroke" fill="none" stroke-linecap="round" stroke-linejoin="round" stroke-miterlimit="4" stroke="#fafafa" stroke-width="2" stroke-opacity="1"><g><path d="M 22 10L 187.71 10C 187.71 10 199.71 10 199.71 22L 199.71 70C 199.71 70 199.71 82 187.71 82L 22 82C 22 82 10 82 10 70L 10 22C 10 22 10 10 22 10"></path></g></g></g><g id="g-root-di_3e6lak244co-fill" data-item-order="-12435" transform="translate(142.90841674804688, 1303.999267578125)"><g id="di_3e6lak244co-fill-merged" stroke="none" fill="url(#gradient-c87c35-206254501)" fill-opacity="1"><g><path d="M10 45.88L96.63 81.77L183.27 45.88L96.63 10L10 45.88"></path></g></g></g><g id="g-root-di_3e6lak244co-stroke" data-item-order="-12435" transform="translate(142.90841674804688, 1303.999267578125)"><g id="di_3e6lak244co-stroke" fill="none" stroke-linecap="round" stroke-linejoin="round" stroke-miterlimit="4" stroke="#fafafa" stroke-width="2" stroke-opacity="1"><g><path d="M 10.000305 45.880488L 96.630305 81.770488L 183.270305 45.880488L 96.630305 10.000488Z"></path></g></g></g><g id="g-root-ro_13zw7a6k26yof-fill" data-item-order="-11804" transform="translate(147.56680297851562, 791.9999389648438)"><g id="ro_13zw7a6k26yof-fill-merged" stroke="none" fill="url(#gradient-2898bd-56937253)" fill-opacity="1"><g><path d="M22 10 H161.95C161.95 10 173.95 10 173.95 22 V70C173.95 70 173.95 82 161.95 82 H22C22 82 10 82 10 70 V22C10 22 10 10 22 10"></path></g></g></g><g id="g-root-ro_13zw7a6k26yof-stroke" data-item-order="-11804" transform="translate(147.56680297851562, 791.9999389648438)"><g id="ro_13zw7a6k26yof-stroke" fill="none" stroke-linecap="round" stroke-linejoin="round" stroke-miterlimit="4" stroke="#fafafa" stroke-width="2" stroke-opacity="1"><g><path d="M 21.999939 10L 161.949939 10C 161.949939 10 173.949939 10 173.949939 22L 173.949939 70C 173.949939 70 173.949939 82 161.949939 82L 21.999939 82C 21.999939 82 9.999939 82 9.999939 70L 9.999939 22C 9.999939 22 9.999939 10 21.999939 10"></path></g></g></g><g id="g-root-ro_93d71akc6jgj-fill" data-item-order="-11591" transform="translate(243.70828247070312, 1651.76904296875)"><g id="ro_93d71akc6jgj-fill-merged" stroke="none" fill="url(#gradient-2898bd-56937253)" fill-opacity="1"><g><path d="M22 10 H158.99C158.99 10 170.99 10 170.99 22 V70C170.99 70 170.99 82 158.99 82 H22C22 82 10 82 10 70 V22C10 22 10 10 22 10"></path></g></g></g><g id="g-root-ro_93d71akc6jgj-stroke" data-item-order="-11591" transform="translate(243.70828247070312, 1651.76904296875)"><g id="ro_93d71akc6jgj-stroke" fill="none" stroke-linecap="round" stroke-linejoin="round" stroke-miterlimit="4" stroke="#fafafa" stroke-width="2" stroke-opacity="1"><g><path d="M 22 10L 158.99 10C 158.99 10 170.99 10 170.99 22L 170.99 70C 170.99 70 170.99 82 158.99 82L 22 82C 22 82 10 82 10 70L 10 22C 10 22 10 10 22 10"></path></g></g></g><g id="g-root-ro_1ly1fq6k1rhfp-fill" data-item-order="-11563" transform="translate(50.248016357421875, 553.9999389648438)"><g id="ro_1ly1fq6k1rhfp-fill-merged" stroke="none" fill="url(#gradient-2898bd-56937253)" fill-opacity="1"><g><path d="M22 10 H158.6C158.6 10 170.6 10 170.6 22 V70C170.6 70 170.6 82 158.6 82 H22C22 82 10 82 10 70 V22C10 22 10 10 22 10"></path></g></g></g><g id="g-root-ro_1ly1fq6k1rhfp-stroke" data-item-order="-11563" transform="translate(50.248016357421875, 553.9999389648438)"><g id="ro_1ly1fq6k1rhfp-stroke" fill="none" stroke-linecap="round" stroke-linejoin="round" stroke-miterlimit="4" stroke="#fafafa" stroke-width="2" stroke-opacity="1"><g><path d="M 22 10L 158.6 10C 158.6 10 170.6 10 170.6 22L 170.6 70C 170.6 70 170.6 82 158.6 82L 22 82C 22 82 10 82 10 70L 10 22C 10 22 10 10 22 10"></path></g></g></g><g id="g-root-ro_qqxof2k1swlk-fill" data-item-order="-10877" transform="translate(154.00430297851562, 919.9999389648438)"><g id="ro_qqxof2k1swlk-fill-merged" stroke="none" fill="url(#gradient-2898bd-56937253)" fill-opacity="1"><g><path d="M22 10 H149.08C149.08 10 161.08 10 161.08 22 V70C161.08 70 161.08 82 149.08 82 H22C22 82 10 82 10 70 V22C10 22 10 10 22 10"></path></g></g></g><g id="g-root-ro_qqxof2k1swlk-stroke" data-item-order="-10877" transform="translate(154.00430297851562, 919.9999389648438)"><g id="ro_qqxof2k1swlk-stroke" fill="none" stroke-linecap="round" stroke-linejoin="round" stroke-miterlimit="4" stroke="#fafafa" stroke-width="2" stroke-opacity="1"><g><path d="M 21.999939 10L 149.079939 10C 149.079939 10 161.079939 10 161.079939 22L 161.079939 70C 161.079939 70 161.079939 82 149.079939 82L 21.999939 82C 21.999939 82 9.999939 82 9.999939 70L 9.999939 22C 9.999939 22 9.999939 10 21.999939 10"></path></g></g></g><g id="g-root-ro_dccsm6k246xa-fill" data-item-order="-10850" transform="translate(154.19180297851562, 1175.999755859375)"><g id="ro_dccsm6k246xa-fill-merged" stroke="none" fill="url(#gradient-2898bd-56937253)" fill-opacity="1"><g><path d="M22 10 H148.7C148.7 10 160.7 10 160.7 22 V70C160.7 70 160.7 82 148.7 82 H22C22 82 10 82 10 70 V22C10 22 10 10 22 10"></path></g></g></g><g id="g-root-ro_dccsm6k246xa-stroke" data-item-order="-10850" transform="translate(154.19180297851562, 1175.999755859375)"><g id="ro_dccsm6k246xa-stroke" fill="none" stroke-linecap="round" stroke-linejoin="round" stroke-miterlimit="4" stroke="#fafafa" stroke-width="2" stroke-opacity="1"><g><path d="M 21.999939 10.000122L 148.699939 10.000122C 148.699939 10.000122 160.699939 10.000122 160.699939 22.000122L 160.699939 70.000122C 160.699939 70.000122 160.699939 82.000122 148.699939 82.000122L 21.999939 82.000122C 21.999939 82.000122 9.999939 82.000122 9.999939 70.000122L 9.999939 22.000122C 9.999939 22.000122 9.999939 10.000122 21.999939 10.000122"></path></g></g></g><g id="g-root-ro_1ibj2k1yia2-fill" data-item-order="-10145" transform="translate(60.097991943359375, 145.99993896484375)"><g id="ro_1ibj2k1yia2-fill-merged" stroke="none" fill="url(#gradient-9c9c9c-219700355)" fill-opacity="1"><g><path d="M22 10 H138.9C138.9 10 150.9 10 150.9 22 V70C150.9 70 150.9 82 138.9 82 H22C22 82 10 82 10 70 V22C10 22 10 10 22 10"></path></g></g></g><g id="g-root-ro_1ibj2k1yia2-stroke" data-item-order="-10145" transform="translate(60.097991943359375, 145.99993896484375)"><g id="ro_1ibj2k1yia2-stroke" fill="none" stroke-linecap="round" stroke-linejoin="round" stroke-miterlimit="4" stroke="#fafafa" stroke-width="2" stroke-opacity="1"><g><path d="M 22 10L 138.9 10C 138.9 10 150.9 10 150.9 22L 150.9 70C 150.9 70 150.9 82 138.9 82L 22 82C 22 82 10 82 10 70L 10 22C 10 22 10 10 22 10"></path></g></g></g><g id="g-root-ro_ddkfdqkbwqo1-fill" data-item-order="-8930" transform="translate(146.85427856445312, 1431.76904296875)"><g id="ro_ddkfdqkbwqo1-fill-merged" stroke="none" fill="url(#gradient-2898bd-56937253)" fill-opacity="1"><g><path d="M22 10 H163.38C163.38 10 175.38 10 175.38 22 V52C175.38 52 175.38 64 163.38 64 H22C22 64 10 64 10 52 V22C10 22 10 10 22 10"></path></g></g></g><g id="g-root-ro_ddkfdqkbwqo1-stroke" data-item-order="-8930" transform="translate(146.85427856445312, 1431.76904296875)"><g id="ro_ddkfdqkbwqo1-stroke" fill="none" stroke-linecap="round" stroke-linejoin="round" stroke-miterlimit="4" stroke="#fafafa" stroke-width="2" stroke-opacity="1"><g><path d="M 22 10L 163.38 10C 163.38 10 175.38 10 175.38 22L 175.38 52C 175.38 52 175.38 64 163.38 64L 22 64C 22 64 10 64 10 52L 10 22C 10 22 10 10 22 10"></path></g></g></g><g id="g-root-ro_zmkli6k22pla-fill" data-item-order="-8685" transform="translate(149.12930297851562, 681.9999389648438)"><g id="ro_zmkli6k22pla-fill-merged" stroke="none" fill="url(#gradient-2898bd-56937253)" fill-opacity="1"><g><path d="M22 10 H158.83C158.83 10 170.83 10 170.83 22 V52C170.83 52 170.83 64 158.83 64 H22C22 64 10 64 10 52 V22C10 22 10 10 22 10"></path></g></g></g><g id="g-root-ro_zmkli6k22pla-stroke" data-item-order="-8685" transform="translate(149.12930297851562, 681.9999389648438)"><g id="ro_zmkli6k22pla-stroke" fill="none" stroke-linecap="round" stroke-linejoin="round" stroke-miterlimit="4" stroke="#fafafa" stroke-width="2" stroke-opacity="1"><g><path d="M 21.999939 10L 158.829939 10C 158.829939 10 170.829939 10 170.829939 22L 170.829939 52C 170.829939 52 170.829939 64 158.829939 64L 21.999939 64C 21.999939 64 9.999939 64 9.999939 52L 9.999939 22C 9.999939 22 9.999939 10 21.999939 10"></path></g></g></g><g id="g-root-ro_13z8hy6kc0yru-fill" data-item-order="-6618" transform="translate(262.9269714355469, 1541.76904296875)"><defs><linearGradient id="gradient-c87c35-206254501" x2="0" y2="1"><stop offset="0" stop-color="#de8431"></stop><stop offset="1" stop-color="#b27338"></stop></linearGradient><linearGradient id="gradient-2898bd-56937253" x2="0" y2="1"><stop offset="0" stop-color="#1fa9d7"></stop><stop offset="1" stop-color="#3187a3"></stop></linearGradient><linearGradient id="gradient-9c9c9c-219700355" x2="0" y2="1"><stop offset="0" stop-color="#ababab"></stop><stop offset="1" stop-color="#8c8c8c"></stop></linearGradient></defs><g id="ro_13z8hy6kc0yru-fill-merged" stroke="none" fill="url(#gradient-2898bd-56937253)" fill-opacity="1"><g><path d="M22 10 H120.55C120.55 10 132.55 10 132.55 22 V52C132.55 52 132.55 64 120.55 64 H22C22 64 10 64 10 52 V22C10 22 10 10 22 10"></path></g></g></g><g id="g-root-ro_13z8hy6kc0yru-stroke" data-item-order="-6618" transform="translate(262.9269714355469, 1541.76904296875)"><g id="ro_13z8hy6kc0yru-stroke" fill="none" stroke-linecap="round" stroke-linejoin="round" stroke-miterlimit="4" stroke="#fafafa" stroke-width="2" stroke-opacity="1"><g><path d="M 22 10L 120.55 10C 120.55 10 132.55 10 132.55 22L 132.55 52C 132.55 52 132.55 64 120.55 64L 22 64C 22 64 10 64 10 52L 10 22C 10 22 10 10 22 10"></path></g></g></g><g id="g-root-tx_no_958pgekbwqa2-fill" data-item-order="0" transform="translate(228.23550415039062, 461.99993896484375)"><g id="tx_no_958pgekbwqa2-fill-merged" stroke="none" fill="#f4f4f4" fill-opacity="1"><g><text style="font: 15px Roboto, sans-serif; white-space: pre;" transform="translate(10, 10)" font-size="15px" font-family="Roboto, sans-serif"><tspan x="2" y="17.6" dominant-baseline="ideographic">No</tspan></text></g></g></g><g id="g-root-tx_no_958pgekbwqa2-stroke" data-item-order="0" transform="translate(228.23550415039062, 461.99993896484375)"></g><g id="g-root-tx_yes_qpnhzykby3np-fill" data-item-order="0" transform="translate(241.54177856445312, 1375.76904296875)"><g id="tx_yes_qpnhzykby3np-fill-merged" stroke="none" fill="#f4f4f4" fill-opacity="1"><g><text style="font: 15px Roboto, sans-serif; white-space: pre;" transform="translate(10, 10)" font-size="15px" font-family="Roboto, sans-serif"><tspan x="2" y="17.6" dominant-baseline="ideographic">Yes</tspan></text></g></g></g><g id="g-root-tx_yes_qpnhzykby3np-stroke" data-item-order="0" transform="translate(241.54177856445312, 1375.76904296875)"></g><g id="g-root-tx_doxenuse_18k1vxakby39q-fill" data-item-order="0" transform="translate(14.000030517578125, 37.99993896484375)"><g id="tx_doxenuse_18k1vxakby39q-fill-merged" stroke="none" fill="#f4f4f4" fill-opacity="1"><g><text style="font: bold 25px Roboto, sans-serif; white-space: pre;" transform="translate(213.3125, 40)" font-weight="bold" font-size="25px" font-family="Roboto, sans-serif"><tspan x="-201.31" y="-0.4" dominant-baseline="ideographic">Doxen User Flow - AI-Powered BRD </tspan><tspan x="-58.91" y="29.6" dominant-baseline="ideographic">Generator</tspan></text></g></g></g><g id="g-root-tx_doxenuse_18k1vxakby39q-stroke" data-item-order="0" transform="translate(14.000030517578125, 37.99993896484375)"></g><g id="g-root-tx_no_1ums2xqkby58k-fill" data-item-order="0" transform="translate(316.1747741699219, 1351.884521484375)"><g id="tx_no_1ums2xqkby58k-fill-merged" stroke="none" fill="#f4f4f4" fill-opacity="1"><g><text style="font: 15px Roboto, sans-serif; white-space: pre;" transform="translate(10, 10)" font-size="15px" font-family="Roboto, sans-serif"><tspan x="2" y="17.6" dominant-baseline="ideographic">No</tspan></text></g></g></g><g id="g-root-tx_no_1ums2xqkby58k-stroke" data-item-order="0" transform="translate(316.1747741699219, 1351.884521484375)"></g><g id="g-root-tx_yes_13ym40ukby68b-fill" data-item-order="0" transform="translate(142.54800415039062, 497.99993896484375)"><g id="tx_yes_13ym40ukby68b-fill-merged" stroke="none" fill="#f4f4f4" fill-opacity="1"><g><text style="font: 15px Roboto, sans-serif; white-space: pre;" transform="translate(10, 10)" font-size="15px" font-family="Roboto, sans-serif"><tspan x="2" y="17.6" dominant-baseline="ideographic">Yes</tspan></text></g></g></g><g id="g-root-tx_yes_13ym40ukby68b-stroke" data-item-order="0" transform="translate(142.54800415039062, 497.99993896484375)"></g><g id="g-root-cu_1luvx7ikby4uj-fill" data-item-order="2" transform="translate(324.2019958496094, 1595.769287109375)"></g><g id="g-root-cu_1luvx7ikby4uj-stroke" data-item-order="2" transform="translate(324.2019958496094, 1595.769287109375)"><g id="cu_1luvx7ikby4uj-stroke" fill="none" stroke-linecap="round" stroke-linejoin="round" stroke-miterlimit="4" stroke="#f4f4f4" stroke-width="2" stroke-opacity="1"><g><path d="M 10 10L 10 38L 10 64"></path><path d="M 3.5 58L 10 64.5L 16.5 58" stroke-dasharray="none"></path></g></g></g><g id="g-root-cu_v6pyamkby51o-fill" data-item-order="2" transform="translate(130.54800415039062, 497.99993896484375)"></g><g id="g-root-cu_v6pyamkby51o-stroke" data-item-order="2" transform="translate(130.54800415039062, 497.99993896484375)"><g id="cu_v6pyamkby51o-stroke" fill="none" stroke-linecap="round" stroke-linejoin="round" stroke-miterlimit="4" stroke="#f4f4f4" stroke-width="2" stroke-opacity="1"><g><path d="M 10 10L 10 38L 10 64"></path><path d="M 3.5 58L 10 64.5L 16.5 58" stroke-dasharray="none"></path></g></g></g><g id="g-root-cu_1luvx7ikby4uh-fill" data-item-order="2" transform="translate(229.54177856445312, 1485.769287109375)"></g><g id="g-root-cu_1luvx7ikby4uh-stroke" data-item-order="2" transform="translate(229.54177856445312, 1485.769287109375)"><g id="cu_1luvx7ikby4uh-stroke" fill="none" stroke-linecap="round" stroke-linejoin="round" stroke-miterlimit="4" stroke="#f4f4f4" stroke-width="2" stroke-opacity="1"><g><path d="M 10 10L 10 24L 10 38L 57.3 38L 104.7 38L 104.7 52L 104.7 64"></path><path d="M 98.2 58L 104.7 64.5L 111.2 58" stroke-dasharray="none"></path></g></g></g><g id="g-root-cu_1lt0hy6kby51i-fill" data-item-order="2" transform="translate(130.54800415039062, 217.99993896484375)"></g><g id="g-root-cu_1lt0hy6kby51i-stroke" data-item-order="2" transform="translate(130.54800415039062, 217.99993896484375)"><g id="cu_1lt0hy6kby51i-stroke" fill="none" stroke-linecap="round" stroke-linejoin="round" stroke-miterlimit="4" stroke="#f4f4f4" stroke-width="2" stroke-opacity="1"><g><path d="M 10 10L 10 38L 10 64"></path><path d="M 3.5 58L 10 64.5L 16.5 58" stroke-dasharray="none"></path></g></g></g><g id="g-root-cu_mbpf4ukby3gi-fill" data-item-order="2" transform="translate(130.54800415039062, 625.9999389648438)"></g><g id="g-root-cu_mbpf4ukby3gi-stroke" data-item-order="2" transform="translate(130.54800415039062, 625.9999389648438)"><g id="cu_mbpf4ukby3gi-stroke" fill="none" stroke-linecap="round" stroke-linejoin="round" stroke-miterlimit="4" stroke="#f4f4f4" stroke-width="2" stroke-opacity="1"><g><path d="M 10 10L 10 24L 10 38L 59.5 38L 109 38L 109 52L 109 64"></path><path d="M 102.5 58L 109 64.5L 115.5 58" stroke-dasharray="none"></path></g></g></g><g id="g-root-cu_1qapfbykby423-fill" data-item-order="2" transform="translate(229.54177856445312, 1375.769287109375)"></g><g id="g-root-cu_1qapfbykby423-stroke" data-item-order="2" transform="translate(229.54177856445312, 1375.769287109375)"><g id="cu_1qapfbykby423-stroke" fill="none" stroke-linecap="round" stroke-linejoin="round" stroke-miterlimit="4" stroke="#f4f4f4" stroke-width="2" stroke-opacity="1"><g><path d="M 10 10L 10 38L 10 64"></path><path d="M 3.5 58L 10 64.5L 16.5 58" stroke-dasharray="none"></path></g></g></g><g id="g-root-cu_1qapfbykby426-fill" data-item-order="2" transform="translate(316.1747741699219, 1339.884521484375)"></g><g id="g-root-cu_1qapfbykby426-stroke" data-item-order="2" transform="translate(316.1747741699219, 1339.884521484375)"><g id="cu_1qapfbykby426-stroke" fill="none" stroke-linecap="round" stroke-linejoin="round" stroke-miterlimit="4" stroke="#f4f4f4" stroke-width="2" stroke-opacity="1"><g><path d="M 10 10L 26 10L 42 10L 42 96.9L 42 183.9L 30 183.9L 18 183.9L 18 197.9L 18 209.9"></path><path d="M 11.5 203.9L 18 210.4L 24.5 203.9" stroke-dasharray="none"></path></g></g></g><g id="g-root-cu_dg2evykby498-fill" data-item-order="2" transform="translate(229.54177856445312, 735.9999389648438)"></g><g id="g-root-cu_dg2evykby498-stroke" data-item-order="2" transform="translate(229.54177856445312, 735.9999389648438)"><g id="cu_dg2evykby498-stroke" fill="none" stroke-linecap="round" stroke-linejoin="round" stroke-miterlimit="4" stroke="#f4f4f4" stroke-width="2" stroke-opacity="1"><g><path d="M 10 10L 10 38L 10 64"></path><path d="M 3.5 58L 10 64.5L 16.5 58" stroke-dasharray="none"></path></g></g></g><g id="g-root-cu_hvvx0ekby3gv-fill" data-item-order="2" transform="translate(228.23550415039062, 449.99993896484375)"></g><g id="g-root-cu_hvvx0ekby3gv-stroke" data-item-order="2" transform="translate(228.23550415039062, 449.99993896484375)"><g id="cu_hvvx0ekby3gv-stroke" fill="none" stroke-linecap="round" stroke-linejoin="round" stroke-miterlimit="4" stroke="#f4f4f4" stroke-width="2" stroke-opacity="1"><g><path d="M 10 10L 26 10L 42 10L 42 112L 42 214L 26.7 214L 11.3 214L 11.3 228L 11.3 240"></path><path d="M 4.8 234L 11.3 240.5L 17.8 234" stroke-dasharray="none"></path></g></g></g><g id="g-root-cu_58dlqkby3gg-fill" data-item-order="2" transform="translate(229.54177856445312, 1247.999755859375)"></g><g id="g-root-cu_58dlqkby3gg-stroke" data-item-order="2" transform="translate(229.54177856445312, 1247.999755859375)"><g id="cu_58dlqkby3gg-stroke" fill="none" stroke-linecap="round" stroke-linejoin="round" stroke-miterlimit="4" stroke="#f4f4f4" stroke-width="2" stroke-opacity="1"><g><path d="M 10 10L 10 38L 10 64"></path><path d="M 3.5 58L 10 64.5L 16.5 58" stroke-dasharray="none"></path></g></g></g><g id="g-root-cu_4kfen2kby5tx-fill" data-item-order="2" transform="translate(229.54177856445312, 1120)"></g><g id="g-root-cu_4kfen2kby5tx-stroke" data-item-order="2" transform="translate(229.54177856445312, 1120)"><g id="cu_4kfen2kby5tx-stroke" fill="none" stroke-linecap="round" stroke-linejoin="round" stroke-miterlimit="4" stroke="#f4f4f4" stroke-width="2" stroke-opacity="1"><g><path d="M 10 10L 10 38L 10 64"></path><path d="M 3.5 58L 10 64.5L 16.5 58" stroke-dasharray="none"></path></g></g></g><g id="g-root-cu_908wrikby51j-fill" data-item-order="2" transform="translate(229.54177856445312, 863.9999389648438)"></g><g id="g-root-cu_908wrikby51j-stroke" data-item-order="2" transform="translate(229.54177856445312, 863.9999389648438)"><g id="cu_908wrikby51j-stroke" fill="none" stroke-linecap="round" stroke-linejoin="round" stroke-miterlimit="4" stroke="#f4f4f4" stroke-width="2" stroke-opacity="1"><g><path d="M 10 10L 10 38L 10 64"></path><path d="M 3.5 58L 10 64.5L 16.5 58" stroke-dasharray="none"></path></g></g></g><g id="g-root-cu_18i6gnykby3gp-fill" data-item-order="2" transform="translate(130.54800415039062, 345.99993896484375)"></g><g id="g-root-cu_18i6gnykby3gp-stroke" data-item-order="2" transform="translate(130.54800415039062, 345.99993896484375)"><g id="cu_18i6gnykby3gp-stroke" fill="none" stroke-linecap="round" stroke-linejoin="round" stroke-miterlimit="4" stroke="#f4f4f4" stroke-width="2" stroke-opacity="1"><g><path d="M 10 10L 10 38L 10 64"></path><path d="M 3.5 58L 10 64.5L 16.5 58" stroke-dasharray="none"></path></g></g></g><g id="g-root-cu_908wrikby51m-fill" data-item-order="2" transform="translate(229.54177856445312, 991.9999389648438)"></g><g id="g-root-cu_908wrikby51m-stroke" data-item-order="2" transform="translate(229.54177856445312, 991.9999389648438)"><g id="cu_908wrikby51m-stroke" fill="none" stroke-linecap="round" stroke-linejoin="round" stroke-miterlimit="4" stroke="#f4f4f4" stroke-width="2" stroke-opacity="1"><g><path d="M 10 10L 10 38L 10 64"></path><path d="M 3.5 58L 10 64.5L 16.5 58" stroke-dasharray="none"></path></g></g></g><g id="g-root-tx_adddatas_zkp9emk1swsm-fill" data-item-order="1000000000" transform="translate(202.00424194335938, 931.9999389648438)"><g id="tx_adddatas_zkp9emk1swsm-fill-merged" stroke="none" fill="#ffffff" fill-opacity="1"><g><text style="font: bold 20px Roboto, sans-serif; white-space: pre;" transform="translate(10, 34)" font-weight="bold" font-size="20px" font-family="Roboto, sans-serif"><tspan x="2" y="0" dominant-baseline="ideographic">Add Data </tspan><tspan x="2" y="24" dominant-baseline="ideographic">Sources</tspan></text></g></g></g><g id="g-root-tx_adddatas_zkp9emk1swsm-stroke" data-item-order="1000000000" transform="translate(202.00424194335938, 931.9999389648438)"></g><g id="g-root-ic_uplo_18hl7tqk1sxe7-fill" data-item-order="1000000000" transform="translate(166.00424194335938, 940.9999389648438)"></g><g id="g-root-ic_uplo_18hl7tqk1sxe7-stroke" data-item-order="1000000000" transform="translate(166.00424194335938, 940.9999389648438)"><g id="ic_uplo_18hl7tqk1sxe7-stroke" fill="none" stroke-linecap="round" stroke-linejoin="round" stroke-miterlimit="4" stroke="#f4f4f4" stroke-width="2" stroke-opacity="1"><g><path d="M 30.375 29.86375L 33.375 29.86375C 33.375 29.86375 38.75 29.1625 38.75 23.885C 38.751179 22.262434 38.091461 20.709373 36.922871 19.583708C 35.754284 18.458042 34.177635 17.856878 32.556248 17.918749C 30.92778 14.462387 27.162411 12.550785 23.411076 13.275928C 19.659737 14.001071 16.87804 17.178236 16.655001 20.9925C 15.33392 20.714672 13.957981 21.047035 12.909385 21.897261C 11.860787 22.747488 11.251219 24.025023 11.25 25.375C 11.25 29.93125 16.032501 29.859999 16.032501 29.859999L 19.61125 29.859999M 25 22.98875L 25 36.73875M 28.75 26.73875L 25 22.98875L 21.25 26.73875"></path></g></g></g><g id="g-root-ic_1_8vwtemk1zxfk-fill" data-item-order="1000000000" transform="translate(146.68551635742188, 1069)"></g><g id="g-root-ic_1_8vwtemk1zxfk-stroke" data-item-order="1000000000" transform="translate(146.68551635742188, 1069)"><g id="ic_1_8vwtemk1zxfk-stroke" fill="none" stroke-linecap="round" stroke-linejoin="round" stroke-miterlimit="4" stroke="#f4f4f4" stroke-width="2" stroke-opacity="1"><g><path d="M 17.4375 35.451248C 18.762774 35.230663 19.881689 34.344501 20.4 33.105M 13.02625 20.682499C 15.583341 21.130905 17.78021 22.756794 18.956249 25.071251M 17.22875 22.786251L 19.470001 21.105M 22.5 10.84125C 22.475971 12.094332 22.249725 13.335309 21.830002 14.516251M 20 15.625C 20 16.315355 20.559643 16.875 21.25 16.875C 21.940357 16.875 22.5 16.315355 22.5 15.625C 22.5 14.934644 21.940357 14.375 21.25 14.375C 20.559643 14.375 20 14.934644 20 15.625ZM 27.5 18.125C 27.5 18.815355 28.059643 19.375 28.75 19.375C 29.440357 19.375 30 18.815355 30 18.125C 30 17.434645 29.440357 16.875 28.75 16.875C 28.059643 16.875 27.5 17.434645 27.5 18.125ZM 31.875 23.125C 31.875 23.815357 32.434647 24.375 33.125 24.375C 33.815353 24.375 34.375 23.815357 34.375 23.125C 34.375 22.434643 33.815353 21.875 33.125 21.875C 32.434647 21.875 31.875 22.434643 31.875 23.125ZM 27.5 27.5C 27.5 28.190357 28.059643 28.75 28.75 28.75C 29.440357 28.75 30 28.190357 30 27.5C 30 26.809643 29.440357 26.25 28.75 26.25C 28.059643 26.25 27.5 26.809643 27.5 27.5ZM 19.375 20.625C 19.375 21.315357 19.934645 21.875 20.625 21.875C 21.315357 21.875 21.875 21.315357 21.875 20.625C 21.875 19.934645 21.315357 19.375 20.625 19.375C 19.934645 19.375 19.375 19.934645 19.375 20.625ZM 18.125 26.25C 18.125 26.940357 18.684645 27.5 19.375 27.5C 20.065357 27.5 20.625 26.940357 20.625 26.25C 20.625 25.559643 20.065357 25 19.375 25C 18.684645 25 18.125 25.559643 18.125 26.25ZM 39.375 25C 39.380005 23.241142 38.470627 21.60606 36.973751 20.682501C 37.058456 20.313419 37.102474 19.936169 37.105 19.557499C 37.130047 16.958282 35.151798 14.776985 32.5625 14.54875C 32.588318 13.525249 32.203011 12.534068 31.492691 11.796733C 30.782368 11.059398 29.806252 10.637381 28.782499 10.625C 27.163891 10.717669 25.719658 11.672218 25 13.125C 24.280342 11.672218 22.836109 10.717669 21.217501 10.625C 20.193748 10.637381 19.217632 11.059398 18.507309 11.796733C 17.796988 12.534068 17.411678 13.525249 17.4375 14.54875C 14.847234 14.777057 12.868641 16.959826 12.895 19.559999C 12.895476 19.938438 12.937393 20.315687 13.02 20.684999C 11.527056 21.612268 10.619104 23.245028 10.619104 25.002501C 10.619104 26.759972 11.527056 28.392731 13.02 29.32C 12.937393 29.689312 12.895476 30.066563 12.895 30.445C 12.871267 33.043259 14.849168 35.223087 17.4375 35.451248C 17.411678 36.474751 17.796988 37.465931 18.507309 38.203266C 19.217632 38.940601 20.193748 39.362617 21.217501 39.375C 22.710207 39.411186 24.124975 38.709881 24.999998 37.499996C 25.875023 38.709881 27.289793 39.411186 28.782499 39.374996C 29.806252 39.362617 30.782368 38.940601 31.492691 38.203266C 32.203011 37.465931 32.588318 36.474751 32.5625 35.451248C 35.152763 35.222942 37.131359 33.040173 37.105 30.439999C 37.102474 30.061331 37.058456 29.68408 36.973747 29.314999C 38.469868 28.391907 39.379135 26.757969 39.375 25ZM 25 13.125L 25 27.5M 25 32.447502L 25 37.5M 36.466251 17.078751L 33 18.813749C 31.987383 19.320721 30.797626 19.33271 29.775 18.846249M 28.75 26.25C 29.120653 24.703291 30.328293 23.495653 31.875002 23.125002M 32.5625 35.451248C 32.217499 34.25 31.62875 33.326248 30.625 33.125M 19.375 31.875C 19.375 32.565353 19.934645 33.125 20.625 33.125C 21.315357 33.125 21.875 32.565353 21.875 31.875C 21.875 31.184645 21.315357 30.625 20.625 30.625C 19.934645 30.625 19.375 31.184645 19.375 31.875ZM 28.125 33.125C 28.125 33.815353 28.684643 34.375 29.375 34.375C 30.065355 34.375 30.625 33.815353 30.625 33.125C 30.625 32.434647 30.065355 31.875 29.375 31.875C 28.684643 31.875 28.125 32.434647 28.125 33.125Z"></path></g></g></g><g id="g-root-tx_extractr_1hiuhumk1yjnr-fill" data-item-order="1000000000" transform="translate(182.68551635742188, 1060)"><g id="tx_extractr_1hiuhumk1yjnr-fill-merged" stroke="none" fill="#ffffff" fill-opacity="1"><g><text style="font: bold 20px Roboto, sans-serif; white-space: pre;" transform="translate(10, 34)" font-weight="bold" font-size="20px" font-family="Roboto, sans-serif"><tspan x="2" y="0" dominant-baseline="ideographic">Extract </tspan><tspan x="2" y="24" dominant-baseline="ideographic">Requirements</tspan></text></g></g></g><g id="g-root-tx_extractr_1hiuhumk1yjnr-stroke" data-item-order="1000000000" transform="translate(182.68551635742188, 1060)"></g><g id="g-root-tx_firsttim_1lza4f2k1yk27-fill" data-item-order="1000000000" transform="translate(81.70425415039062, 425.99993896484375)"><g id="tx_firsttim_1lza4f2k1yk27-fill-merged" stroke="none" fill="#ffffff" fill-opacity="1"><g><text style="font: bold 20px Roboto, sans-serif; white-space: pre;" transform="translate(58.84375, 34)" font-weight="bold" font-size="20px" font-family="Roboto, sans-serif"><tspan x="-46.84" y="0" dominant-baseline="ideographic">First-time </tspan><tspan x="-27.27" y="24" dominant-baseline="ideographic">user?</tspan></text></g></g></g><g id="g-root-tx_firsttim_1lza4f2k1yk27-stroke" data-item-order="1000000000" transform="translate(81.70425415039062, 425.99993896484375)"></g><g id="g-root-tx_authenti_146r5r2k1yk98-fill" data-item-order="1000000000" transform="translate(77.92926025390625, 285.99993896484375)"><g id="tx_authenti_146r5r2k1yk98-fill-merged" stroke="none" fill="#ffffff" fill-opacity="1"><g><text style="font: bold 20px Roboto, sans-serif; white-space: pre;" transform="translate(9.999969482421875, 34)" font-weight="bold" font-size="20px" font-family="Roboto, sans-serif"><tspan x="2" y="0" dominant-baseline="ideographic">Authentication </tspan><tspan x="2" y="24" dominant-baseline="ideographic">Flow</tspan></text></g></g></g><g id="g-root-tx_authenti_146r5r2k1yk98-stroke" data-item-order="1000000000" transform="translate(77.92926025390625, 285.99993896484375)"></g><g id="g-root-ic_ai_qntazik245cd-fill" data-item-order="1000000000" transform="translate(166.19174194335938, 1196.999755859375)"></g><g id="g-root-ic_ai_qntazik245cd-stroke" data-item-order="1000000000" transform="translate(166.19174194335938, 1196.999755859375)"><g id="ic_ai_qntazik245cd-stroke" fill="none" stroke-linecap="round" stroke-linejoin="round" stroke-miterlimit="4" stroke="#f4f4f4" stroke-width="2" stroke-opacity="1"><g><path d="M 35.625 39.375C 36.315353 39.375 36.875 38.815353 36.875 38.125L 36.875 18.09375C 36.875 13.968873 33.531128 10.625 29.40625 10.625L 14.375 10.625C 13.684644 10.625 13.125 11.184644 13.125 11.875L 13.125 38.125C 13.125 38.815353 13.684644 39.375 14.375 39.375ZM 30.625 10.725L 30.625 15.625C 30.625 16.315355 31.184645 16.875 31.875 16.875L 36.775002 16.875M 20.625 33.125L 20.625 27.5C 20.625 26.464466 21.464466 25.625 22.5 25.625C 23.535534 25.625 24.375 26.464466 24.375 27.5L 24.375 33.125M 20.625 29.375L 24.375 29.375M 28.125 25.625L 28.125 33.125M 26.875 33.125L 29.375 33.125M 26.875 25.625L 29.375 25.625"></path></g></g></g><g id="g-root-tx_generate_959xpak22qz0-fill" data-item-order="1000000000" transform="translate(202.19174194335938, 1187.999755859375)"><g id="tx_generate_959xpak22qz0-fill-merged" stroke="none" fill="#ffffff" fill-opacity="1"><g><text style="font: bold 20px Roboto, sans-serif; white-space: pre;" transform="translate(10, 34)" font-weight="bold" font-size="20px" font-family="Roboto, sans-serif"><tspan x="2" y="0" dominant-baseline="ideographic">Generate </tspan><tspan x="2" y="24" dominant-baseline="ideographic">BRD</tspan></text></g></g></g><g id="g-root-tx_generate_959xpak22qz0-stroke" data-item-order="1000000000" transform="translate(202.19174194335938, 1187.999755859375)"></g><g id="g-root-tx_projectw_m7d8m6k26yvh-fill" data-item-order="1000000000" transform="translate(195.56674194335938, 803.9999389648438)"><g id="tx_projectw_m7d8m6k26yvh-fill-merged" stroke="none" fill="#ffffff" fill-opacity="1"><g><text style="font: bold 20px Roboto, sans-serif; white-space: pre;" transform="translate(10, 34)" font-weight="bold" font-size="20px" font-family="Roboto, sans-serif"><tspan x="2" y="0" dominant-baseline="ideographic">Project </tspan><tspan x="2" y="24" dominant-baseline="ideographic">Workspace</tspan></text></g></g></g><g id="g-root-tx_projectw_m7d8m6k26yvh-stroke" data-item-order="1000000000" transform="translate(195.56674194335938, 803.9999389648438)"></g><g id="g-root-ic_thro_9mktak1yiod-fill" data-item-order="1000000000" transform="translate(41.929229736328125, 294.99993896484375)"></g><g id="g-root-ic_thro_9mktak1yiod-stroke" data-item-order="1000000000" transform="translate(41.929229736328125, 294.99993896484375)"><g id="ic_thro_9mktak1yiod-stroke" fill="none" stroke-linecap="round" stroke-linejoin="round" stroke-miterlimit="4" stroke="#f4f4f4" stroke-width="2" stroke-opacity="1"><g><path d="M 17.397987 19.863276L 13.200687 19.863276C 12.510325 19.863276 11.950687 19.303638 11.950687 18.613276L 11.950687 13.544925C 11.950687 12.854563 12.510325 12.294925 13.200687 12.294925L 28.272751 12.294925C 28.962999 12.294925 29.522751 12.854563 29.522751 13.544925L 29.522751 14.612875M 15.9807 16.321787C 15.812551 16.321787 15.676275 16.185513 15.676275 16.017363C 15.676275 15.849213 15.812551 15.712888 15.9807 15.712888M 15.97975 16.321787C 16.1479 16.321787 16.284176 16.185513 16.284176 16.017363C 16.284176 15.849213 16.1479 15.712888 15.97975 15.712888M 19.520737 16.321787C 19.352587 16.321787 19.216312 16.185513 19.216312 16.017363C 19.216312 15.849213 19.352587 15.712888 19.520737 15.712888M 19.519787 16.321787C 19.687937 16.321787 19.824224 16.185513 19.824224 16.017363C 19.824224 15.849213 19.687937 15.712888 19.519787 15.712888M 10 10M 38.049377 32.0215L 23.919624 32.0215M 19.519037 32.0215L 11.950475 32.0215M 10 10M 14.392088 29.580124L 11.949825 32.023251L 14.392088 34.4655M 33.563248 35.368626C 33.563248 36.617001 32.470875 37.709373 31.2225 37.709373L 21.859737 37.709373C 20.611376 37.709373 19.519037 36.773125 19.519037 35.368626L 19.519037 28.3465C 19.519037 27.098125 20.611376 26.005875 21.859737 26.005875L 31.2225 26.005875C 32.470875 26.005875 33.563248 27.098125 33.563248 28.3465M 26.54175 18.984375C 23.889 18.984375 21.86035 21.012976 21.86035 23.665751L 21.86035 26.0065L 31.223125 26.0065L 31.223125 23.665751C 31.223125 21.169025 29.1945 18.984375 26.54175 18.984375Z"></path></g></g></g><g id="g-root-tx_refinebr_1irbyk245cf-fill" data-item-order="1000000000" transform="translate(171.87930297851562, 1327.884521484375)"><g id="tx_refinebr_1irbyk245cf-fill-merged" stroke="none" fill="#ffffff" fill-opacity="1"><g><text style="font: bold 20px Roboto, sans-serif; white-space: pre;" transform="translate(67.6624755859375, 22)" font-weight="bold" font-size="20px" font-family="Roboto, sans-serif"><tspan x="-55.66" y="12" dominant-baseline="ideographic">Refine BRD?</tspan></text></g></g></g><g id="g-root-tx_refinebr_1irbyk245cf-stroke" data-item-order="1000000000" transform="translate(171.87930297851562, 1327.884521484375)"></g><g id="g-root-ic_sett_1cvj7j2k26xvq-fill" data-item-order="1000000000" transform="translate(159.56674194335938, 812.9999389648438)"></g><g id="g-root-ic_sett_1cvj7j2k26xvq-stroke" data-item-order="1000000000" transform="translate(159.56674194335938, 812.9999389648438)"><g id="ic_sett_1cvj7j2k26xvq-stroke" fill="none" stroke-linecap="round" stroke-linejoin="round" stroke-miterlimit="4" stroke="#f4f4f4" stroke-width="2" stroke-opacity="1"><g><path d="M 30.391251 31.2775C 30.391253 32.269543 31.195459 33.073753 32.1875 33.073753C 33.179543 33.073753 33.983749 32.269543 33.983749 31.277502C 33.983749 30.285458 33.179543 29.481251 32.1875 29.481251C 31.195459 29.481251 30.391253 30.285458 30.391253 31.277502ZM 33.713753 24.327499L 34.243752 26.067501C 34.424534 26.666653 35.038898 27.023027 35.64875 26.8825L 37.41375 26.473749C 38.099922 26.319088 38.806793 26.629591 39.157101 27.23954C 39.507404 27.849489 39.419376 28.616518 38.940002 29.13125L 37.704998 30.462502C 37.282448 30.921761 37.282448 31.628239 37.704998 32.087498L 38.940002 33.418751C 39.419376 33.933483 39.507404 34.700512 39.157101 35.310459C 38.806793 35.92041 38.099922 36.230911 37.41375 36.076248L 35.64875 35.6675C 35.038898 35.52697 34.424534 35.883347 34.243752 36.482502L 33.713753 38.2225C 33.511196 38.896152 32.890945 39.357338 32.1875 39.357338C 31.484053 39.357338 30.863802 38.896152 30.661249 38.2225L 30.131248 36.482502C 29.950466 35.883347 29.336102 35.52697 28.72625 35.6675L 26.96125 36.076248C 26.27508 36.230911 25.568207 35.92041 25.217901 35.310459C 24.867596 34.700512 24.955624 33.933483 25.435001 33.418751L 26.67 32.087502C 27.092548 31.628239 27.092548 30.921761 26.67 30.462498L 25.434999 29.13125C 24.955624 28.616518 24.867596 27.849489 25.217901 27.23954C 25.568207 26.629591 26.27508 26.319088 26.96125 26.473749L 28.72625 26.8825C 29.336102 27.023027 29.950466 26.666653 30.131248 26.067501L 30.661249 24.327499C 30.863802 23.653847 31.484053 23.192661 32.1875 23.192661C 32.890945 23.192661 33.511196 23.653847 33.713753 24.327499ZM 28.125 21.86375L 28.125 16.86375L 14.375 16.86375L 14.375 33.112499L 21.875 33.11375M 31.875 19.36375L 31.875 14.36375C 31.875 13.673394 31.315355 13.11375 30.625 13.11375L 25.065001 13.11375C 24.40242 11.598935 22.905882 10.620087 21.252501 10.620087C 19.599117 10.620087 18.102579 11.598935 17.440001 13.11375L 11.875 13.11375C 11.184644 13.11375 10.625 13.673394 10.625 14.36375L 10.625 35.61375C 10.625 36.304108 11.184644 36.86375 11.875 36.86375L 21.875 36.86375M 18.125 20.61375L 24.375 20.61375M 18.125 24.36375L 24.375 24.36375M 18.125 28.11375L 21.875 28.11375"></path></g></g></g><g id="g-root-tx_dashboar_de84pqk22qkk-fill" data-item-order="1000000000" transform="translate(197.12924194335938, 696.9999389648438)"><g id="tx_dashboar_de84pqk22qkk-fill-merged" stroke="none" fill="#ffffff" fill-opacity="1"><g><text style="font: bold 20px Roboto, sans-serif; white-space: pre;" transform="translate(10, 22)" font-weight="bold" font-size="20px" font-family="Roboto, sans-serif"><tspan x="2" y="12" dominant-baseline="ideographic">Dashboard</tspan></text></g></g></g><g id="g-root-tx_dashboar_de84pqk22qkk-stroke" data-item-order="1000000000" transform="translate(197.12924194335938, 696.9999389648438)"></g><g id="g-root-ic_grap_1cxemsek22r65-fill" data-item-order="1000000000" transform="translate(161.12924194335938, 693.9999389648438)"></g><g id="g-root-ic_grap_1cxemsek22r65-stroke" data-item-order="1000000000" transform="translate(161.12924194335938, 693.9999389648438)"><g id="ic_grap_1cxemsek22r65-stroke" fill="none" stroke-linecap="round" stroke-linejoin="round" stroke-miterlimit="4" stroke="#f4f4f4" stroke-width="2" stroke-opacity="1"><g><path d="M 26.875 18.75C 26.875002 21.166246 28.833755 23.125 31.25 23.125C 33.666245 23.125 35.625 21.166246 35.625 18.75C 35.625 16.333755 33.666245 14.375 31.25 14.375C 28.833755 14.375 26.875002 16.333755 26.875002 18.75M 14.375 35.625L 17.125 31.77125C 17.222679 31.634512 17.371307 31.54287 17.537348 31.516998C 17.703388 31.491129 17.87285 31.533211 18.0075 31.633749L 19.5 32.75C 19.776142 32.957108 20.167892 32.901142 20.375 32.625L 23.75 28.125M 32.188751 14.47625L 31.25 18.75L 35.592503 18.21875M 28.75 26.875L 35 26.875C 35 26.875 35.625 26.875 35.625 27.5L 35.625 35C 35.625 35 35.625 35.625 35 35.625L 28.75 35.625C 28.75 35.625 28.125 35.625 28.125 35L 28.125 27.5C 28.125 27.5 28.125 26.875 28.75 26.875M 30.625 30.625L 33.125 30.625M 30.625 33.125L 31.875 33.125M 15 14.375L 21.25 14.375C 21.25 14.375 21.875 14.375 21.875 15L 21.875 22.5C 21.875 22.5 21.875 23.125 21.25 23.125L 15 23.125C 15 23.125 14.375 23.125 14.375 22.5L 14.375 15C 14.375 15 14.375 14.375 15 14.375M 16.875 16.875L 19.375 16.875M 16.875 19.375L 18.125 19.375M 11.875 10.625L 38.125 10.625C 38.125 10.625 39.375 10.625 39.375 11.875L 39.375 38.125C 39.375 38.125 39.375 39.375 38.125 39.375L 11.875 39.375C 11.875 39.375 10.625 39.375 10.625 38.125L 10.625 11.875C 10.625 11.875 10.625 10.625 11.875 10.625"></path></g></g></g><g id="g-root-ic_1_qp0xr2kbwp34-fill" data-item-order="1000000000" transform="translate(158.85427856445312, 1443.76904296875)"></g><g id="g-root-ic_1_qp0xr2kbwp34-stroke" data-item-order="1000000000" transform="translate(158.85427856445312, 1443.76904296875)"><g id="ic_1_qp0xr2kbwp34-stroke" fill="none" stroke-linecap="round" stroke-linejoin="round" stroke-miterlimit="4" stroke="#f4f4f4" stroke-width="2" stroke-opacity="1"><g><path d="M 34.375 24.375L 34.375 38.125C 34.375 38.815353 33.815353 39.375 33.125 39.375L 11.875 39.375C 11.184644 39.375 10.625 38.815353 10.625 38.125L 10.625 14.375C 10.625 13.684644 11.184644 13.125 11.875 13.125L 28.125 13.125M 26.030001 27.508751L 19.84375 30.158751L 22.495001 23.971251L 35.842499 10.625L 39.377502 14.16L 26.030001 27.508751ZM 37.083748 16.455L 33.547501 12.91875M 26.030001 27.508751L 22.495001 23.971251"></path></g></g></g><g id="g-root-ic_chec_qu0qfykc6k96-fill" data-item-order="1000000000" transform="translate(255.70828247070312, 1672.76904296875)"></g><g id="g-root-ic_chec_qu0qfykc6k96-stroke" data-item-order="1000000000" transform="translate(255.70828247070312, 1672.76904296875)"><g id="ic_chec_qu0qfykc6k96-stroke" fill="none" stroke-linecap="round" stroke-linejoin="round" stroke-miterlimit="4" stroke="#f4f4f4" stroke-width="2" stroke-opacity="1"><g><path d="M 24.28875 31.940001C 24.288752 36.082138 27.646616 39.439999 31.78875 39.439999C 35.930885 39.439999 39.28875 36.082138 39.28875 31.940001C 39.28875 27.797865 35.930885 24.440001 31.78875 24.440001C 27.646616 24.440001 24.288752 27.797865 24.288752 31.940001ZM 35.131248 29.76L 31.5 34.60125C 31.33707 34.819069 31.08757 34.955383 30.816254 34.974815C 30.544937 34.994244 30.278557 34.894875 30.08625 34.702499L 28.21125 32.827499M 21.907499 28.16625L 12.5325 28.16625C 11.496966 28.16625 10.6575 27.326784 10.6575 26.29125L 10.6575 12.54125C 10.6575 11.505716 11.496966 10.66625 12.5325 10.66625L 35.032497 10.66625C 36.068035 10.66625 36.907501 11.505716 36.907501 12.54125L 36.907497 21.91625M 36.366249 11.22375L 23.782499 21.29125L 11.1975 11.22375"></path></g></g></g><g id="g-root-tx_username_18kpi3ik1rk0b-fill" data-item-order="1000000000" transform="translate(98.24801635742188, 565.9999389648438)"><g id="tx_username_18kpi3ik1rk0b-fill-merged" stroke="none" fill="#ffffff" fill-opacity="1"><g><text style="font: bold 20px Roboto, sans-serif; white-space: pre;" transform="translate(10, 34)" font-weight="bold" font-size="20px" font-family="Roboto, sans-serif"><tspan x="2" y="0" dominant-baseline="ideographic">Username </tspan><tspan x="2" y="24" dominant-baseline="ideographic">Setup</tspan></text></g></g></g><g id="g-root-tx_username_18kpi3ik1rk0b-stroke" data-item-order="1000000000" transform="translate(98.24801635742188, 565.9999389648438)"></g><g id="g-root-tx_landingp_1qf3jdqk1x62o-fill" data-item-order="1000000000" transform="translate(108.09799194335938, 157.99993896484375)"><g id="tx_landingp_1qf3jdqk1x62o-fill-merged" stroke="none" fill="#ffffff" fill-opacity="1"><g><text style="font: bold 20px Roboto, sans-serif; white-space: pre;" transform="translate(10, 34)" font-weight="bold" font-size="20px" font-family="Roboto, sans-serif"><tspan x="2" y="0" dominant-baseline="ideographic">Landing </tspan><tspan x="2" y="24" dominant-baseline="ideographic">Page</tspan></text></g></g></g><g id="g-root-tx_landingp_1qf3jdqk1x62o-stroke" data-item-order="1000000000" transform="translate(108.09799194335938, 157.99993896484375)"></g><g id="g-root-ic_down_1hap0bikc0x6x-fill" data-item-order="1000000000" transform="translate(274.9269714355469, 1553.76904296875)"></g><g id="g-root-ic_down_1hap0bikc0x6x-stroke" data-item-order="1000000000" transform="translate(274.9269714355469, 1553.76904296875)"><g id="ic_down_1hap0bikc0x6x-stroke" fill="none" stroke-linecap="round" stroke-linejoin="round" stroke-miterlimit="4" stroke="#f4f4f4" stroke-width="2" stroke-opacity="1"><g><path d="M 15.625 11.25C 15.625 10.904822 15.904821 10.625 16.25 10.625L 26.616251 10.625C 26.782124 10.624703 26.941311 10.690357 27.05875 10.8075L 34.192501 17.94125C 34.309643 18.058689 34.375298 18.217876 34.375 18.383749L 34.375 28.125L 37.5 28.125C 37.766788 28.124912 38.004219 28.29418 38.091118 28.546419C 38.178017 28.798656 38.09523 29.078245 37.885002 29.2425L 25.385 39.2425C 25.158808 39.41938 24.841192 39.41938 24.615 39.2425L 12.115 29.2425C 11.904772 29.078245 11.821982 28.798656 11.908883 28.546419C 11.995783 28.29418 12.233212 28.124912 12.5 28.125L 15 28.125C 15.345179 28.125 15.625 27.845177 15.625 27.5ZM 34.318748 18.125L 27.5 18.125C 27.154823 18.125 26.875 17.845179 26.875 17.5L 26.875 10.68125"></path></g></g></g><g id="g-root-tx_export_18nsna6kbzi0w-fill" data-item-order="1000000000" transform="translate(310.9269714355469, 1556.76904296875)"><g id="tx_export_18nsna6kbzi0w-fill-merged" stroke="none" fill="#ffffff" fill-opacity="1"><g><text style="font: bold 20px Roboto, sans-serif; white-space: pre;" transform="translate(10, 22)" font-weight="bold" font-size="20px" font-family="Roboto, sans-serif"><tspan x="2" y="12" dominant-baseline="ideographic">Export</tspan></text></g></g></g><g id="g-root-tx_export_18nsna6kbzi0w-stroke" data-item-order="1000000000" transform="translate(310.9269714355469, 1556.76904296875)"></g><g id="g-root-ic_2_4nkx5qk1rifg-fill" data-item-order="1000000000" transform="translate(62.248016357421875, 574.9999389648438)"></g><g id="g-root-ic_2_4nkx5qk1rifg-stroke" data-item-order="1000000000" transform="translate(62.248016357421875, 574.9999389648438)"><g id="ic_2_4nkx5qk1rifg-stroke" fill="none" stroke-linecap="round" stroke-linejoin="round" stroke-miterlimit="4" stroke="#f4f4f4" stroke-width="2" stroke-opacity="1"><g><path d="M 10 10M 38.60125 28.9L 29.196251 38.303749C 29.108942 38.390656 28.998159 38.450172 28.877501 38.474998L 25.293749 39.19125C 25.088993 39.232014 24.877405 39.167847 24.72978 39.020222C 24.582153 38.872597 24.517988 38.661007 24.55875 38.456249L 25.275 34.875C 25.299824 34.754341 25.359344 34.643559 25.446249 34.556252L 34.85125 25.1525C 35.88369 24.120104 37.55756 24.120104 38.59 25.1525L 38.60125 25.1625C 39.630753 26.19565 39.630753 27.86685 38.60125 28.9ZM 14.0625 15.9375C 14.0625 18.871513 16.440987 21.25 19.375 21.25C 22.309013 21.25 24.6875 18.871513 24.6875 15.9375C 24.6875 13.003488 22.309013 10.625 19.375 10.625C 16.440987 10.625 14.0625 13.003488 14.0625 15.9375ZM 23.125 31.875L 10.625 31.875C 10.624193 27.913988 13.284405 24.446457 17.110466 23.421331C 20.936527 22.396206 24.974051 24.069197 26.953751 27.500002"></path></g></g></g><g id="g-root-ic_user_8wiuouk1ykn5-fill" data-item-order="1000000000" transform="translate(72.09799194335938, 166.99993896484375)"></g><g id="g-root-ic_user_8wiuouk1ykn5-stroke" data-item-order="1000000000" transform="translate(72.09799194335938, 166.99993896484375)"><g id="ic_user_8wiuouk1ykn5-stroke" fill="none" stroke-linecap="round" stroke-linejoin="round" stroke-miterlimit="4" stroke="#f4f4f4" stroke-width="2" stroke-opacity="1"><g><path d="M 27.5 23.75C 28.880751 23.75 30 22.630751 30 21.250011C 30 19.869301 28.880751 18.75 27.5 18.75C 26.119249 18.75 25 19.869301 25 21.250011C 25 22.630751 26.119249 23.75 27.5 23.75ZM 24.251749 26.25C 24.900126 25.129126 26.112 24.375 27.5 24.375C 28.888 24.375 30.1 25.129126 30.748375 26.25M 22.375124 31.8125L 22.375124 37.937374C 22.375124 38.562374 21.875113 39.062378 21.250113 39.062378L 14.375113 39.062378C 13.750113 39.062378 13.250125 38.562374 13.250125 37.937374L 13.250125 31.8125M 10 10M 10.9375 33.6875L 17.8125 27.9375L 24.6875 33.6875M 27.812626 30.9375L 37.562626 30.9375C 38.437622 30.9375 39.062622 30.1875 39.062622 29.4375L 39.062622 12.4375C 39.062622 11.5625 38.312626 10.9375 37.562626 10.9375L 17.562637 10.9375C 16.687637 10.9375 16.062626 11.6875 16.062626 12.4375L 16.062626 24.6875M 10 10M 16.062626 15.562438L 39.062622 15.562438"></path></g></g></g><g id="g-root-tx_document_91hrrykc6kg9-fill" data-item-order="1000000000" transform="translate(291.7082824707031, 1663.76904296875)"><g id="tx_document_91hrrykc6kg9-fill-merged" stroke="none" fill="#ffffff" fill-opacity="1"><g><text style="font: bold 20px Roboto, sans-serif; white-space: pre;" transform="translate(10, 34)" font-weight="bold" font-size="20px" font-family="Roboto, sans-serif"><tspan x="2" y="0" dominant-baseline="ideographic">Document </tspan><tspan x="2" y="24" dominant-baseline="ideographic">Delivered</tspan></text></g></g></g><g id="g-root-tx_document_91hrrykc6kg9-stroke" data-item-order="1000000000" transform="translate(291.7082824707031, 1663.76904296875)"></g><g id="g-root-tx_refinebr_4gogymkbwpan-fill" data-item-order="1000000000" transform="translate(194.85427856445312, 1446.76904296875)"><g id="tx_refinebr_4gogymkbwpan-fill-merged" stroke="none" fill="#ffffff" fill-opacity="1"><g><text style="font: bold 20px Roboto, sans-serif; white-space: pre;" transform="translate(10, 22)" font-weight="bold" font-size="20px" font-family="Roboto, sans-serif"><tspan x="2" y="12" dominant-baseline="ideographic">Refine BRD</tspan></text></g></g></g><g id="g-root-tx_refinebr_4gogymkbwpan-stroke" data-item-order="1000000000" transform="translate(194.85427856445312, 1446.76904296875)"></g></g></g><path id="w1lz95m7m01clo" d="M65.283 12.757a.35.35 0 0 0 .584.157l5.203-5.141-6.183 3.523.396 1.461zm-2.216-11.7a.35.35 0 0 0-.522.305v3.111l3.276-1.868-2.754-1.548zm3.728 2.105l-4.25 2.421v2.445l6.391-3.644-2.141-1.222zm4.708 3.303a.35.35 0 0 0 0-.609l-1.592-.9-7.365 4.199v1.782a.35.35 0 0 0 .523.305l8.435-4.777z M44.542 2.513c0-.433.355-.783.792-.783s.792.35.792.783-.355.783-.792.783-.792-.35-.792-.783zm59.171 0c0-.433.355-.783.792-.783s.792.35.792.783-.355.783-.792.783-.792-.35-.792-.783zm-85.951 7.636h-1.27v-.487c-.276.201-.864.609-1.881.609-1.202 0-2.274-.794-2.137-2.078.118-1.106 1.153-1.584 1.848-1.727l2.17-.345c0-.539-.29-.956-1.064-1.006s-1.21.305-1.571 1.017l-1.124-.605c1.218-2.631 5.029-1.764 5.029.414v4.207zm-1.27-2.86c.006.396-.062 1.112-.819 1.59-.587.37-1.841.299-1.903-.395-.049-.555.461-.791.906-.898l1.816-.297zm72.662 2.86h-1.27v-.487c-.276.201-.864.609-1.881.609-1.202 0-2.274-.794-2.137-2.078.118-1.106 1.153-1.584 1.848-1.727l2.17-.345c0-.539-.29-.956-1.064-1.006s-1.21.305-1.571 1.017l-1.124-.605c1.218-2.631 5.029-1.764 5.029.414v4.207zm-1.27-2.86c.006.396-.062 1.112-.82 1.59-.587.37-1.841.299-1.903-.395-.049-.555.461-.791.906-.898l1.816-.297zM99.096 10.149H97.85v-8.45h1.246v4.895l2.68-2.559h1.738l-2.633 2.535 2.715 3.578h-1.556l-2.077-2.707-.867.844v1.863zm6.053-6.114h-1.255v6.113h1.255V4.035zm-59.2 0h-1.255v6.113h1.255V4.035zm5.584 6.113V1.697h1.255v2.695c.361-.346 1-.485 1.47-.485 1.452 0 2.477 1.082 2.457 2.448v3.792h-1.27v-3.68c0-.408-.214-1.339-1.315-1.339-.968 0-1.342.756-1.342 1.339v3.681h-1.255zm-4.76-4.894V4.039h.621a.45.45 0 0 0 .45-.45v-.855h1.251v1.305h1.309v1.215h-1.309v3.109c0 .293.105.664.648.664.365 0 .531-.035.736-.07v1.137s-.361.113-.857.113c-1.398 0-1.777-1.051-1.777-1.788V5.254h-1.071zM36.528 4.039h-1.394l2.191 6.106h1.125l1.234-3.918 1.238 3.918h1.129l2.188-6.106h-1.383l-1.359 3.93-1.256-3.93h-1.124l-1.242 3.957-1.348-3.957zM26.212 7.141c-.02 1.566 1.187 3.129 3.223 3.129 1.566 0 2.383-.918 2.734-1.719L31.172 8c-.315.399-.801 1.094-1.738 1.094-1.145 0-1.825-.781-1.891-1.52h4.625c.074-.284.148-.995-.03-1.559-.336-1.064-1.221-2.102-2.839-2.102s-3.088 1.152-3.088 3.227zm1.363-.75h3.348c-.055-.43-.566-1.301-1.623-1.301a1.79 1.79 0 0 0-1.725 1.301zm-8.758.75c.038 1.758 1.277 3.133 3.145 3.133 1.074 0 1.723-.477 1.961-.672v.547h1.242V1.703h-1.258v2.888c-.414-.36-1.062-.68-1.93-.68-1.91 0-3.198 1.473-3.16 3.23zm1.309-.08c0 1.119.723 1.978 1.836 1.978a1.88 1.88 0 0 0 1.94-1.904c0-1.371-1.011-1.99-1.972-1.99s-1.805.798-1.805 1.916zm76.683-.028C96.771 5.275 95.532 3.9 93.664 3.9c-1.074 0-1.723.477-1.961.672v-.547h-1.242v8.22h1.258V9.583c.414.36 1.063.68 1.93.68 1.91 0 3.198-1.473 3.16-3.23zm-1.309.08c0-1.119-.723-1.978-1.836-1.978a1.88 1.88 0 0 0-1.94 1.904c0 1.371 1.011 1.99 1.972 1.99S95.5 8.231 95.5 7.113zM106.441 10.173V4.036h1.254v.382c.361-.346 1-.485 1.47-.485 1.452 0 2.477 1.082 2.457 2.448v3.792h-1.27V6.492c0-.408-.214-1.339-1.315-1.339-.969 0-1.342.756-1.342 1.339v3.681h-1.254zm-30.383-.021V1.824h1.084l4.215 5.777V1.824h1.32v8.328h-1.094l-4.207-5.796v5.796h-1.319zM5.24 10.149H4V2.377h1.014l2.664 3.597 2.654-3.592h1.03v7.766h-1.256V4.762L7.678 8.068 5.24 4.742v5.407z" transform="translate(20, 1747.76904296875)" fill="#acacac88" stroke="none"></path></svg>